<svg xmlns="http://www.w3.org/2000/svg" xmlns:xlink="http://www.w3.org/1999/xlink" width="500" zoomAndPan="magnify" viewBox="0 0 375 374.999991" height="500" preserveAspectRatio="xMidYMid meet" version="1.0"><defs><g/></defs><g fill="#693b99" fill-opacity="1"><g transform="translate(81.530623, 214.124986)"><g><path d="M 2.734375 -27.3125 C 2.734375 -32.664062 3.941406 -37.460938 6.359375 -41.703125 C 8.773438 -45.941406 12.078125 -49.242188 16.265625 -51.609375 C 20.453125 -53.984375 25.148438 -55.171875 30.359375 -55.171875 C 36.441406 -55.171875 41.769531 -53.609375 46.34375 -50.484375 C 50.925781 -47.359375 54.128906 -43.039062 55.953125 -37.53125 L 43.390625 -37.53125 C 42.140625 -40.132812 40.378906 -42.085938 38.109375 -43.390625 C 35.847656 -44.691406 33.238281 -45.34375 30.28125 -45.34375 C 27.101562 -45.34375 24.28125 -44.597656 21.8125 -43.109375 C 19.34375 -41.628906 17.414062 -39.535156 16.03125 -36.828125 C 14.65625 -34.117188 13.96875 -30.945312 13.96875 -27.3125 C 13.96875 -23.71875 14.65625 -20.554688 16.03125 -17.828125 C 17.414062 -15.097656 19.34375 -12.988281 21.8125 -11.5 C 24.28125 -10.019531 27.101562 -9.28125 30.28125 -9.28125 C 33.238281 -9.28125 35.847656 -9.941406 38.109375 -11.265625 C 40.378906 -12.597656 42.140625 -14.566406 43.390625 -17.171875 L 55.953125 -17.171875 C 54.128906 -11.597656 50.941406 -7.265625 46.390625 -4.171875 C 41.835938 -1.078125 36.492188 0.46875 30.359375 0.46875 C 25.148438 0.46875 20.453125 -0.710938 16.265625 -3.078125 C 12.078125 -5.441406 8.773438 -8.734375 6.359375 -12.953125 C 3.941406 -17.171875 2.734375 -21.957031 2.734375 -27.3125 Z M 2.734375 -27.3125 "/></g></g></g><g fill="#693b99" fill-opacity="1"><g transform="translate(141.452662, 214.124986)"><g><path d="M 46.1875 -43.234375 L 46.1875 0 L 35.1875 0 L 35.1875 -5.46875 C 33.78125 -3.59375 31.945312 -2.117188 29.6875 -1.046875 C 27.425781 0.015625 24.96875 0.546875 22.3125 0.546875 C 18.9375 0.546875 15.945312 -0.164062 13.34375 -1.59375 C 10.738281 -3.03125 8.695312 -5.140625 7.21875 -7.921875 C 5.738281 -10.703125 5 -14.019531 5 -17.875 L 5 -43.234375 L 15.921875 -43.234375 L 15.921875 -19.4375 C 15.921875 -16 16.773438 -13.351562 18.484375 -11.5 C 20.203125 -9.65625 22.546875 -8.734375 25.515625 -8.734375 C 28.535156 -8.734375 30.898438 -9.65625 32.609375 -11.5 C 34.328125 -13.351562 35.1875 -16 35.1875 -19.4375 L 35.1875 -43.234375 Z M 46.1875 -43.234375 "/></g></g></g><g fill="#693b99" fill-opacity="1"><g transform="translate(193.02619, 214.124986)"><g><path d="M 16.3125 -36.515625 C 17.71875 -38.804688 19.550781 -40.601562 21.8125 -41.90625 C 24.070312 -43.207031 26.660156 -43.859375 29.578125 -43.859375 L 29.578125 -32.390625 L 26.6875 -32.390625 C 23.25 -32.390625 20.660156 -31.582031 18.921875 -29.96875 C 17.179688 -28.351562 16.3125 -25.539062 16.3125 -21.53125 L 16.3125 0 L 5.390625 0 L 5.390625 -43.234375 L 16.3125 -43.234375 Z M 16.3125 -36.515625 "/></g></g></g><g fill="#693b99" fill-opacity="1"><g transform="translate(224.54768, 214.124986)"><g><path d="M 16.3125 -57.75 L 16.3125 0 L 5.390625 0 L 5.390625 -57.75 Z M 16.3125 -57.75 "/></g></g></g><g fill="#693b99" fill-opacity="1"><g transform="translate(246.238215, 214.124986)"><g><path d="M 46.734375 -43.234375 L 19.96875 20.4375 L 8.34375 20.4375 L 17.71875 -1.09375 L 0.390625 -43.234375 L 12.640625 -43.234375 L 23.796875 -13.03125 L 35.109375 -43.234375 Z M 46.734375 -43.234375 "/></g></g></g></svg>