<svg xmlns="http://www.w3.org/2000/svg" xmlns:xlink="http://www.w3.org/1999/xlink" width="500" zoomAndPan="magnify" viewBox="0 0 375 374.999991" height="500" preserveAspectRatio="xMidYMid meet" version="1.0"><defs><g/><clipPath id="6ee45771ce"><rect x="0" width="365" y="0" height="187"/></clipPath></defs><g transform="matrix(1, 0, 0, 1, 6, 94)"><g clip-path="url(#6ee45771ce)"><g fill="#693b99" fill-opacity="1"><g transform="translate(0.678779, 138.93165)"><g><path d="M 4.65625 -46.59375 C 4.65625 -55.738281 6.71875 -63.925781 10.84375 -71.15625 C 14.976562 -78.394531 20.617188 -84.03125 27.765625 -88.0625 C 34.910156 -92.101562 42.921875 -94.125 51.796875 -94.125 C 62.179688 -94.125 71.273438 -91.460938 79.078125 -86.140625 C 86.890625 -80.816406 92.351562 -73.453125 95.46875 -64.046875 L 74.03125 -64.046875 C 71.894531 -68.484375 68.894531 -71.8125 65.03125 -74.03125 C 61.175781 -76.25 56.71875 -77.359375 51.65625 -77.359375 C 46.238281 -77.359375 41.421875 -76.09375 37.203125 -73.5625 C 32.992188 -71.03125 29.710938 -67.457031 27.359375 -62.84375 C 25.003906 -58.226562 23.828125 -52.8125 23.828125 -46.59375 C 23.828125 -40.46875 25.003906 -35.078125 27.359375 -30.421875 C 29.710938 -25.765625 32.992188 -22.171875 37.203125 -19.640625 C 41.421875 -17.109375 46.238281 -15.84375 51.65625 -15.84375 C 56.71875 -15.84375 61.175781 -16.972656 65.03125 -19.234375 C 68.894531 -21.503906 71.894531 -24.859375 74.03125 -29.296875 L 95.46875 -29.296875 C 92.351562 -19.796875 86.910156 -12.40625 79.140625 -7.125 C 71.378906 -1.84375 62.265625 0.796875 51.796875 0.796875 C 42.921875 0.796875 34.910156 -1.21875 27.765625 -5.25 C 20.617188 -9.289062 14.976562 -14.90625 10.84375 -22.09375 C 6.71875 -29.289062 4.65625 -37.457031 4.65625 -46.59375 Z M 4.65625 -46.59375 "/></g></g></g><g fill="#693b99" fill-opacity="1"><g transform="translate(102.926965, 138.93165)"><g><path d="M 78.8125 -73.765625 L 78.8125 0 L 60.046875 0 L 60.046875 -9.3125 C 57.648438 -6.125 54.519531 -3.617188 50.65625 -1.796875 C 46.800781 0.0234375 42.609375 0.9375 38.078125 0.9375 C 32.304688 0.9375 27.203125 -0.28125 22.765625 -2.71875 C 18.328125 -5.164062 14.84375 -8.765625 12.3125 -13.515625 C 9.78125 -18.265625 8.515625 -23.921875 8.515625 -30.484375 L 8.515625 -73.765625 L 27.15625 -73.765625 L 27.15625 -33.15625 C 27.15625 -27.289062 28.617188 -22.78125 31.546875 -19.625 C 34.484375 -16.476562 38.476562 -14.90625 43.53125 -14.90625 C 48.6875 -14.90625 52.726562 -16.476562 55.65625 -19.625 C 58.582031 -22.78125 60.046875 -27.289062 60.046875 -33.15625 L 60.046875 -73.765625 Z M 78.8125 -73.765625 "/></g></g></g><g fill="#693b99" fill-opacity="1"><g transform="translate(190.929641, 138.93165)"><g><path d="M 27.828125 -62.3125 C 30.222656 -66.21875 33.347656 -69.28125 37.203125 -71.5 C 41.066406 -73.71875 45.484375 -74.828125 50.453125 -74.828125 L 50.453125 -55.25 L 45.53125 -55.25 C 39.675781 -55.25 35.257812 -53.875 32.28125 -51.125 C 29.3125 -48.375 27.828125 -43.582031 27.828125 -36.75 L 27.828125 0 L 9.1875 0 L 9.1875 -73.765625 L 27.828125 -73.765625 Z M 27.828125 -62.3125 "/></g></g></g><g fill="#693b99" fill-opacity="1"><g transform="translate(244.716449, 138.93165)"><g><path d="M 27.828125 -98.53125 L 27.828125 0 L 9.1875 0 L 9.1875 -98.53125 Z M 27.828125 -98.53125 "/></g></g></g><g fill="#693b99" fill-opacity="1"><g transform="translate(281.728171, 138.93165)"><g><path d="M 79.75 -73.765625 L 34.078125 34.890625 L 14.25 34.890625 L 30.21875 -1.859375 L 0.671875 -73.765625 L 21.5625 -73.765625 L 40.609375 -22.234375 L 59.90625 -73.765625 Z M 79.75 -73.765625 "/></g></g></g></g></g></svg>